<?xml version="1.0" encoding="UTF-8" standalone="no"?> <svg id="Layer_1" data-name="Layer 1" xmlns="http://www.w3.org/2000/svg" viewBox="0 0 128 128"><defs><style>.cls-1{fill:#2d3e50;}</style></defs><title>x</title><path class="cls-1" d="M70.574,4.21473A54.3192,54.3192,0,0,0,17.01528,49.91849C16.57421,52.698,3.19661,123.78527,3.19661,123.78527L42.985,105.13883A54.23221,54.23221,0,1,0,70.574,4.21473ZM67.96373,28.0213a7.26583,7.26583,0,1,1-7.26887,7.26282A7.259,7.259,0,0,1,67.96373,28.0213ZM78.56186,88.97575H62.07251a3.69787,3.69787,0,0,1,0-7.39574h2.3142V57.64654h-.429a4.32024,4.32024,0,0,1-.75528-8.57395c.15106-.03024,4.88821-.96679,8.61629-1.70393a3.73065,3.73065,0,0,1,4.4592,3.66162V81.58h2.284a3.69787,3.69787,0,0,1,0,7.39574Z"/></svg>