<svg xmlns="http://www.w3.org/2000/svg" viewBox="0 0 198.02 198.02"><defs><style>.cls-1{fill:#8700ff;}.cls-2{fill:#fffaff;}.cls-3{fill:#fffbff;}</style></defs><g id="Layer_2" data-name="Layer 2"><g id="Layer_1-2" data-name="Layer 1"><path class="cls-1" d="M97.62,107.94a73,73,0,0,1,71.93,60.53A99,99,0,1,0,26.14,166,73,73,0,0,1,97.62,107.94Zm3.57-51.59A25.8,25.8,0,1,1,75.4,82.14,25.79,25.79,0,0,1,101.19,56.35Z"/><circle class="cls-2" cx="101.19" cy="74.4" r="39.09"/><path class="cls-3" d="M99,198a98.69,98.69,0,0,0,70.54-29.55A73,73,0,0,0,26.14,166,98.72,98.72,0,0,0,99,198Z"/></g></g></svg>