<svg xmlns="http://www.w3.org/2000/svg" viewBox="0 0 233.33 140.87"><defs><style>.cls-1{fill:#8700ff;}.cls-2{fill:#fffaff;}</style></defs><g id="Layer_2" data-name="Layer 2"><g id="Layer_1-2" data-name="Layer 1"><rect class="cls-1" width="233.33" height="140.87" rx="25.2"/><path class="cls-2" d="M194.59,105.1l-47.7-22.33a50.62,50.62,0,0,0,.29-34.31C137.78,21.74,108,7.79,80.77,17.37s-41.7,39.1-32.3,65.82,39.19,40.66,66.41,31.09a52.69,52.69,0,0,0,27.2-21.71l47.7,22.33a5.59,5.59,0,0,0,7.35-2.58A5.34,5.34,0,0,0,194.59,105.1Zm-83.3-1c-21.49,7.56-45-3.45-52.43-24.55s4-44.4,25.5-52,45,3.45,52.43,24.54S132.77,96.52,111.29,104.08Z"/></g></g></svg>